<svg width="242" height="64" viewBox="0 0 242 64" fill="none" xmlns="http://www.w3.org/2000/svg">
<path fill-rule="evenodd" clip-rule="evenodd" d="M51.5616 49.8537C53.423 49.0644 55.2387 48.1602 57 47.147L56.6348 41.0621C56.3962 39.0888 56.0413 37.1523 55.5804 35.2585C55.1224 33.3809 54.5599 31.5446 53.8972 29.7568C53.2389 27.9852 52.4864 26.2608 51.6397 24.5908L51.619 24.5496C50.7796 22.8944 49.8504 21.2907 48.8387 19.7474C47.0701 20.2746 45.3736 20.9667 43.7685 21.8076C42.1751 22.6411 40.6715 23.6204 39.274 24.7278C37.85 25.8544 36.5364 27.1149 35.351 28.4904C34.301 29.7082 33.3526 31.0144 32.5191 32.3972L32.0007 33.2926C31.2217 34.6945 30.559 36.1701 30.023 37.7031C29.431 39.3966 28.9936 41.1608 28.73 42.9824C30.5384 43.1312 32.3468 43.1533 34.1449 43.0531C34.3054 42.1519 34.516 41.2698 34.7766 40.4083C35.0741 39.4216 35.4378 38.46 35.859 37.5337C36.4893 36.1495 37.2506 34.8374 38.1283 33.6151C38.5996 34.696 39.0148 35.8049 39.3712 36.9403C39.9028 38.6264 40.3049 40.37 40.567 42.1592C40.8056 43.7821 40.9293 45.4447 40.9293 47.1352V47.5564C39.1533 47.9187 37.3581 48.1749 35.5468 48.3222C34.974 48.3693 34.3982 48.4046 33.8209 48.4297C32.0376 48.5048 30.2454 48.4739 28.4532 48.334C26.6566 48.1941 24.86 47.9422 23.0752 47.58L23.0722 47.1352C23.0722 45.4506 23.1944 43.7968 23.4315 42.1784C23.6937 40.3877 24.0957 38.6441 24.6258 36.9565C25.1751 35.2085 25.8628 33.5223 26.6728 31.9083C27.2663 30.7273 27.9275 29.586 28.6505 28.4889C29.6519 26.9691 30.7726 25.5333 32.0007 24.1977C33.2083 22.8797 34.5204 21.6589 35.9223 20.547C37.3331 19.4278 38.8352 18.4176 40.4153 17.5296C42.0293 16.624 43.7228 15.8464 45.4841 15.2102C44.2559 13.7317 42.9453 12.3268 41.5581 11C39.7998 11.7525 38.1077 12.6302 36.4922 13.6198C34.918 14.5858 33.4174 15.6579 31.9993 16.8286C30.5826 15.6594 29.082 14.5858 27.5078 13.6198C25.8923 12.6302 24.1988 11.7525 22.4419 11C21.0547 12.3268 19.7441 13.7332 18.5174 15.2102C17.3172 16.6563 16.1951 18.1687 15.1613 19.7459C14.1393 21.3025 13.2042 22.9194 12.3589 24.5894C11.5136 26.2593 10.7596 27.9838 10.1028 29.7553C9.44014 31.5431 8.87612 33.3795 8.41814 35.2585C7.95721 37.1553 7.60378 39.0918 7.36374 41.0651C7.1237 43.0546 7 45.0809 7 47.1352C8.77893 48.1617 10.5947 49.0673 12.4369 49.8537C12.3839 48.9539 12.3559 48.0468 12.3559 47.1352C12.3559 46.0735 12.3927 45.0206 12.4664 43.9779C12.5989 42.0635 12.8537 40.1815 13.2218 38.3407C13.5856 36.5132 14.0627 34.7269 14.6444 32.9877C15.2217 31.2589 15.902 29.5771 16.6766 27.9499C17.7001 25.8013 18.8914 23.7485 20.2315 21.8061C21.2624 20.3114 22.383 18.883 23.5832 17.5281C25.1633 18.4161 26.6654 19.4249 28.0777 20.5455C26.8686 21.8591 25.7494 23.2566 24.726 24.7263C23.4846 26.5126 22.386 28.4049 21.4494 30.39C20.691 31.9967 20.0386 33.6622 19.5011 35.3808C18.968 37.0861 18.5468 38.8429 18.2479 40.638C17.949 42.4332 17.7722 44.2695 17.7251 46.1383L17.7133 47.1338C17.7133 48.7272 17.8091 50.2984 17.9931 51.8432C19.8486 52.3866 21.7203 52.8151 23.5994 53.1362C25.4623 53.4528 27.3325 53.6619 29.2013 53.765C31.0538 53.8681 32.9049 53.8666 34.7442 53.765L34.7987 53.762C36.6793 53.6545 38.5495 53.4425 40.4006 53.1244C42.2929 52.8004 44.1646 52.3689 46.0069 51.8329C46.1909 50.294 46.2837 48.7257 46.2837 47.1367L46.2705 46.1162C46.2219 44.2489 46.0451 42.414 45.7462 40.6204C45.4473 38.8252 45.0246 37.0713 44.4915 35.3675C43.9526 33.6519 43.3002 31.9864 42.5418 30.3812L42.0484 29.3754C43.4209 28.2194 44.9274 27.221 46.5444 26.4036C46.8124 26.9132 47.0701 27.4286 47.319 27.9499C48.095 29.5771 48.7739 31.2574 49.3512 32.9848C49.9314 34.7225 50.4071 36.5088 50.7723 38.3348C51.1404 40.1727 51.3952 42.0517 51.5292 43.9632L51.5587 49.8522L51.5616 49.8537Z" fill="url(#paint0_linear_315_1708)"/>
<path d="M66 22.8587H70.3877L73.2214 37.2101H73.2823L76.0856 24.4431H80.4123L83.0937 36.9054H83.1851L85.6532 22.8587H90.0408L85.8055 43.1212H81.1131L78.2185 30.8113H78.1271L75.2019 43.1212H70.3877L66 22.8587Z" fill="#2A2933"/>
<path d="M92.2159 21.9446H96.4817V28.7089C97.4263 27.7339 98.8279 27.2159 100.29 27.2159C103.52 27.2159 105.227 29.0136 105.227 32.6395V43.1212H100.961V33.2794C100.961 31.6645 100.656 30.5066 99.0412 30.5066C97.5481 30.5066 96.4817 31.7254 96.4817 33.1575V43.1212H92.2159V21.9446Z" fill="#2A2933"/>
<path d="M110.653 25.5096C109.221 25.5096 108.307 24.565 108.307 23.2548C108.307 22.036 109.221 21 110.653 21C112.054 21 113.03 22.0055 113.03 23.2548C113.03 24.5041 112.054 25.5096 110.653 25.5096ZM108.52 27.6729H112.816V43.1212H108.52V27.6729Z" fill="#2A2933"/>
<path d="M120.77 43.5783C118.058 43.5783 115.803 42.6032 114.95 41.9634L116.108 38.9468C117.174 39.6172 119.063 40.4703 120.617 40.4703C121.653 40.4703 122.506 39.9524 122.506 38.8554C122.506 37.6671 121.47 37.3015 120.191 36.9054C117.936 36.235 115.407 35.4733 115.407 32.2739C115.407 29.0136 118.119 27.2159 121.196 27.2159C123.542 27.2159 125.614 28.13 126.986 29.4402L125.005 31.9083C123.756 30.9028 122.506 30.2934 121.379 30.2934C120.374 30.2934 119.551 30.8113 119.551 31.8473C119.551 32.9747 120.587 33.4013 121.988 33.8583C124.213 34.5896 126.711 35.4123 126.711 38.5507C126.711 41.8415 124.304 43.5783 120.77 43.5783Z" fill="#2A2933"/>
<path d="M129.173 28.2823C131.549 27.5206 134.017 27.2159 135.571 27.2159C140.447 27.2159 142.823 29.9582 142.823 35.2904C142.823 40.6836 140.294 43.5783 136.211 43.5783C135.175 43.5783 134.109 43.2736 133.408 42.9079V49.5199H129.173V28.2823ZM135.754 40.2571C137.643 40.2571 138.527 38.5507 138.527 35.5342C138.527 32.7005 137.826 30.5676 135.389 30.5676C134.657 30.5676 133.926 30.7199 133.408 30.8723V39.6477C133.956 40.0742 134.932 40.2571 135.754 40.2571Z" fill="#2A2933"/>
<path d="M152.119 43.5783C146.97 43.5783 144.867 40.3485 144.867 35.778C144.867 31.2989 147.488 27.2159 152.485 27.2159C155.562 27.2159 157.543 28.7699 157.543 31.695C157.543 36.2655 152.485 37.0577 149.194 37.1796C149.377 38.825 150.382 40.3789 152.668 40.3789C154.313 40.3789 155.654 39.6477 156.476 39.0687L157.695 41.872C157.36 42.1767 155.227 43.5783 152.119 43.5783ZM149.042 34.3154C150.687 34.2849 153.795 33.7669 153.795 31.7864C153.795 30.8113 153.186 30.2324 152.241 30.2324C150.2 30.2324 149.133 32.1216 149.042 34.3154Z" fill="#2A2933"/>
<path d="M160.151 30.3543L159.846 27.6729H163.32L163.685 29.8668C164.417 28.069 165.94 27.2159 167.342 27.2159C168.225 27.2159 169.17 27.4292 169.81 27.7948L169.139 31.3598C168.499 31.0551 167.738 30.8113 166.946 30.8113C165.452 30.8113 164.477 31.9083 164.416 33.5232V43.1212H160.151V30.3543Z" fill="#2A2933"/>
<path d="M170.294 22.8587H174.682L177.516 37.2101H177.577L180.38 24.4431H184.707L187.388 36.9054H187.479L189.948 22.8587H194.335L190.1 43.1212H185.407L182.513 30.8113H182.421L179.496 43.1212H174.682L170.294 22.8587Z" fill="#2A2933"/>
<path d="M217.499 43.5173C213.721 43.5173 211.954 41.811 211.954 38.0632V27.6729H216.219V37.3624C216.219 39.0687 216.372 40.2266 217.987 40.2266C220.18 40.2266 220.82 37.4538 220.82 34.7115C220.82 32.2434 220.272 29.684 219.784 27.6729H223.959C224.538 29.6535 224.995 32.213 224.995 34.5287C224.995 40.2266 222.435 43.5173 217.499 43.5173Z" fill="#2A2933"/>
<path d="M234.424 43.5783C229.275 43.5783 227.172 40.3485 227.172 35.778C227.172 31.2989 229.793 27.2159 234.79 27.2159C237.867 27.2159 239.848 28.7699 239.848 31.695C239.848 36.2655 234.79 37.0577 231.499 37.1796C231.682 38.825 232.687 40.3789 234.972 40.3789C236.618 40.3789 237.959 39.6477 238.781 39.0687L240 41.872C239.665 42.1767 237.532 43.5783 234.424 43.5783ZM231.347 34.3154C232.992 34.2849 236.1 33.7669 236.1 31.7864C236.1 30.8113 235.49 30.2324 234.546 30.2324C232.504 30.2324 231.438 32.1216 231.347 34.3154Z" fill="#2A2933"/>
<path d="M200.74 43.6088C196.109 43.6088 194.768 40.0438 194.768 36.0827C194.768 30.72 197.51 27.2159 202.843 27.2159C203.878 27.2159 206.164 27.4902 208.449 28.3433V40.0438L208.754 43.1213H205.128L204.884 41.5673L204.762 41.5369C203.939 42.7557 202.629 43.6088 200.74 43.6088ZM201.715 40.5009C203.33 40.5009 204.244 39.3735 204.244 38.2461V30.5981C203.818 30.4153 203.117 30.2629 202.325 30.2629C199.826 30.2629 198.973 32.8529 198.973 35.839C198.973 38.2766 199.521 40.5009 201.715 40.5009Z" fill="#5741E7"/>
<defs>
<linearGradient id="paint0_linear_315_1708" x1="9.92969" y1="11" x2="61.4318" y2="17.2352" gradientUnits="userSpaceOnUse">
<stop stop-color="#4C36E0"/>
<stop offset="1" stop-color="#6852F2"/>
</linearGradient>
</defs>
</svg>
