<svg width="238" height="60" viewBox="0 0 238 60" fill="none" xmlns="http://www.w3.org/2000/svg">
<path fill-rule="evenodd" clip-rule="evenodd" d="M48.339 45.8003C50.0841 45.0604 51.7863 44.2127 53.4375 43.2628L53.0951 37.5583C52.8715 35.7083 52.5387 33.8928 52.1066 32.1174C51.6773 30.3571 51.1499 28.6355 50.5286 26.9595C49.9115 25.2987 49.206 23.682 48.4122 22.1164L48.3928 22.0778C47.6059 20.526 46.7348 19.0225 45.7863 17.5757C44.1282 18.0699 42.5378 18.7188 41.0329 19.5071C39.5392 20.2885 38.1296 21.2066 36.8194 22.2448C35.4844 23.301 34.2529 24.4827 33.1415 25.7722C32.1572 26.9139 31.2681 28.1385 30.4867 29.4349L30.0007 30.2743C29.2704 31.5886 28.6491 32.972 28.1466 34.4091C27.5916 35.9968 27.1815 37.6508 26.9344 39.3585C28.6298 39.498 30.3251 39.5187 32.0108 39.4248C32.1613 38.5799 32.3587 37.7529 32.6031 36.9453C32.882 36.0203 33.223 35.1188 33.6178 34.2504C34.2087 32.9526 34.9225 31.7225 35.7453 30.5766C36.1871 31.59 36.5764 32.6296 36.9105 33.694C37.4089 35.2748 37.7858 36.9094 38.0316 38.5868C38.2552 40.1082 38.3712 41.6669 38.3712 43.2518V43.6466C36.7062 43.9863 35.0233 44.2265 33.3251 44.3645C32.7881 44.4087 32.2483 44.4419 31.7071 44.4653C30.0352 44.5357 28.355 44.5067 26.6749 44.3756C24.9905 44.2444 23.3062 44.0084 21.633 43.6687L21.6302 43.2518C21.6302 41.6724 21.7448 40.122 21.9671 38.6047C22.2128 36.926 22.5897 35.2913 23.0867 33.7092C23.6017 32.0704 24.2464 30.4897 25.0057 28.9765C25.5621 27.8693 26.182 26.7994 26.8599 25.7708C27.7987 24.3461 28.8493 23 30.0007 21.7478C31.1328 20.5122 32.3629 19.3677 33.6772 18.3253C34.9998 17.2761 36.408 16.329 37.8894 15.4965C39.4025 14.6475 40.9901 13.9185 42.6413 13.3221C41.4899 11.936 40.2612 10.6189 38.9607 9.375C37.3123 10.0805 35.726 10.9033 34.2115 11.8311C32.7356 12.7367 31.3288 13.7418 29.9993 14.8394C28.6712 13.7432 27.2644 12.7367 25.7885 11.8311C24.274 10.9033 22.6864 10.0805 21.0393 9.375C19.7388 10.6189 18.5101 11.9374 17.3601 13.3221C16.2349 14.6778 15.1829 16.0957 14.2137 17.5743C13.2556 19.0336 12.3789 20.5495 11.5864 22.115C10.794 23.6806 10.0871 25.2973 9.47139 26.9581C8.85013 28.6342 8.32137 30.3557 7.892 32.1174C7.45988 33.8956 7.12854 35.711 6.9035 37.561C6.67847 39.4262 6.5625 41.3259 6.5625 43.2518C8.23025 44.2141 9.93251 45.0631 11.6596 45.8003C11.6099 44.9568 11.5837 44.1064 11.5837 43.2518C11.5837 42.2564 11.6182 41.2693 11.6872 40.2918C11.8115 38.4971 12.0503 36.7327 12.3955 35.0069C12.7365 33.2936 13.1838 31.619 13.7291 29.9885C14.2703 28.3677 14.9081 26.7911 15.6343 25.2655C16.5938 23.2513 17.7107 21.3267 18.9671 19.5057C19.9335 18.1044 20.9841 16.7653 22.1093 15.4951C23.5906 16.3276 24.9988 17.2733 26.3228 18.324C25.1894 19.5554 24.1401 20.8656 23.1806 22.2434C22.0168 23.9181 20.9869 25.6921 20.1088 27.5532C19.3978 29.0594 18.7862 30.6208 18.2823 32.232C17.7825 33.8307 17.3877 35.4777 17.1074 37.1607C16.8271 38.8436 16.6615 40.5652 16.6173 42.3171L16.6063 43.2504C16.6063 44.7442 16.696 46.2173 16.8686 47.6655C18.6081 48.175 20.3628 48.5767 22.1245 48.8777C23.8709 49.1745 25.6242 49.3705 27.3762 49.4672C29.113 49.5638 30.8484 49.5624 32.5727 49.4672L32.6238 49.4644C34.3868 49.3636 36.1402 49.1648 37.8755 48.8666C39.6496 48.5629 41.4043 48.1584 43.1314 47.6559C43.304 46.2131 43.391 44.7428 43.391 43.2532L43.3786 42.2964C43.333 40.5458 43.1673 38.8256 42.8871 37.1441C42.6068 35.4612 42.2106 33.8169 41.7108 32.2195C41.2055 30.6112 40.5939 29.0497 39.8829 27.5449L39.4204 26.6019C40.7071 25.5182 42.1195 24.5821 43.6353 23.8159C43.8866 24.2936 44.1282 24.7768 44.3615 25.2655C45.0891 26.7911 45.7256 28.3663 46.2667 29.9858C46.8107 31.6148 47.2566 33.2895 47.599 35.0014C47.9442 36.7244 48.183 38.486 48.3086 40.278L48.3362 45.799L48.339 45.8003Z" fill="url(#paint0_linear_315_1708)"/>
<path d="M62 18.8587H66.3877L69.2214 33.2101H69.2823L72.0856 20.4431H76.4123L79.0937 32.9054H79.1851L81.6532 18.8587H86.0408L81.8055 39.1212H77.1131L74.2185 26.8113H74.1271L71.2019 39.1212H66.3877L62 18.8587Z" fill="#2A2933"/>
<path d="M88.2159 17.9446H92.4817V24.7089C93.4263 23.7339 94.8279 23.2159 96.2904 23.2159C99.5203 23.2159 101.227 25.0136 101.227 28.6395V39.1212H96.9608V29.2794C96.9608 27.6645 96.6561 26.5066 95.0412 26.5066C93.5481 26.5066 92.4817 27.7254 92.4817 29.1575V39.1212H88.2159V17.9446Z" fill="#2A2933"/>
<path d="M106.653 21.5096C105.221 21.5096 104.307 20.565 104.307 19.2548C104.307 18.036 105.221 17 106.653 17C108.054 17 109.03 18.0055 109.03 19.2548C109.03 20.5041 108.054 21.5096 106.653 21.5096ZM104.52 23.6729H108.816V39.1212H104.52V23.6729Z" fill="#2A2933"/>
<path d="M116.77 39.5783C114.058 39.5783 111.803 38.6032 110.95 37.9634L112.108 34.9468C113.174 35.6172 115.063 36.4703 116.617 36.4703C117.653 36.4703 118.506 35.9524 118.506 34.8554C118.506 33.6671 117.47 33.3015 116.191 32.9054C113.936 32.235 111.407 31.4733 111.407 28.2739C111.407 25.0136 114.119 23.2159 117.196 23.2159C119.542 23.2159 121.614 24.13 122.986 25.4402L121.005 27.9083C119.756 26.9028 118.506 26.2934 117.379 26.2934C116.374 26.2934 115.551 26.8113 115.551 27.8473C115.551 28.9747 116.587 29.4013 117.988 29.8583C120.213 30.5896 122.711 31.4123 122.711 34.5507C122.711 37.8415 120.304 39.5783 116.77 39.5783Z" fill="#2A2933"/>
<path d="M125.173 24.2823C127.549 23.5206 130.017 23.2159 131.571 23.2159C136.447 23.2159 138.823 25.9582 138.823 31.2904C138.823 36.6836 136.294 39.5783 132.211 39.5783C131.175 39.5783 130.109 39.2736 129.408 38.9079V45.5199H125.173V24.2823ZM131.754 36.2571C133.643 36.2571 134.527 34.5507 134.527 31.5342C134.527 28.7005 133.826 26.5676 131.389 26.5676C130.657 26.5676 129.926 26.7199 129.408 26.8723V35.6477C129.956 36.0742 130.932 36.2571 131.754 36.2571Z" fill="#2A2933"/>
<path d="M148.119 39.5783C142.97 39.5783 140.867 36.3485 140.867 31.778C140.867 27.2989 143.488 23.2159 148.485 23.2159C151.562 23.2159 153.543 24.7699 153.543 27.695C153.543 32.2655 148.485 33.0577 145.194 33.1796C145.377 34.825 146.382 36.3789 148.668 36.3789C150.313 36.3789 151.654 35.6477 152.476 35.0687L153.695 37.872C153.36 38.1767 151.227 39.5783 148.119 39.5783ZM145.042 30.3154C146.687 30.2849 149.795 29.7669 149.795 27.7864C149.795 26.8113 149.186 26.2324 148.241 26.2324C146.2 26.2324 145.133 28.1216 145.042 30.3154Z" fill="#2A2933"/>
<path d="M156.151 26.3543L155.846 23.6729H159.32L159.685 25.8668C160.417 24.069 161.94 23.2159 163.342 23.2159C164.225 23.2159 165.17 23.4292 165.81 23.7948L165.139 27.3598C164.499 27.0551 163.738 26.8113 162.946 26.8113C161.452 26.8113 160.477 27.9083 160.416 29.5232V39.1212H156.151V26.3543Z" fill="#2A2933"/>
<path d="M166.294 18.8587H170.682L173.516 33.2101H173.577L176.38 20.4431H180.707L183.388 32.9054H183.479L185.948 18.8587H190.335L186.1 39.1212H181.407L178.513 26.8113H178.421L175.496 39.1212H170.682L166.294 18.8587Z" fill="#2A2933"/>
<path d="M213.499 39.5173C209.721 39.5173 207.954 37.811 207.954 34.0632V23.6729H212.219V33.3624C212.219 35.0687 212.372 36.2266 213.987 36.2266C216.18 36.2266 216.82 33.4538 216.82 30.7115C216.82 28.2434 216.272 25.684 215.784 23.6729H219.959C220.538 25.6535 220.995 28.213 220.995 30.5287C220.995 36.2266 218.435 39.5173 213.499 39.5173Z" fill="#2A2933"/>
<path d="M230.424 39.5783C225.275 39.5783 223.172 36.3485 223.172 31.778C223.172 27.2989 225.793 23.2159 230.79 23.2159C233.867 23.2159 235.848 24.7699 235.848 27.695C235.848 32.2655 230.79 33.0577 227.499 33.1796C227.682 34.825 228.687 36.3789 230.972 36.3789C232.618 36.3789 233.959 35.6477 234.781 35.0687L236 37.872C235.665 38.1767 233.532 39.5783 230.424 39.5783ZM227.347 30.3154C228.992 30.2849 232.1 29.7669 232.1 27.7864C232.1 26.8113 231.49 26.2324 230.546 26.2324C228.504 26.2324 227.438 28.1216 227.347 30.3154Z" fill="#2A2933"/>
<path d="M196.74 39.6088C192.109 39.6088 190.768 36.0438 190.768 32.0827C190.768 26.72 193.51 23.2159 198.843 23.2159C199.878 23.2159 202.164 23.4902 204.449 24.3433V36.0438L204.754 39.1213H201.128L200.884 37.5673L200.762 37.5369C199.939 38.7557 198.629 39.6088 196.74 39.6088ZM197.715 36.5009C199.33 36.5009 200.244 35.3735 200.244 34.2461V26.5981C199.818 26.4153 199.117 26.2629 198.325 26.2629C195.826 26.2629 194.973 28.8529 194.973 31.839C194.973 34.2766 195.521 36.5009 197.715 36.5009Z" fill="#2A2933"/>
<defs>
<linearGradient id="paint0_linear_315_1708" x1="9.30908" y1="9.37499" x2="57.5924" y2="15.2205" gradientUnits="userSpaceOnUse">
<stop stop-color="#5C46ED"/>
<stop offset="1" stop-color="#816EFF"/>
</linearGradient>
</defs>
</svg>
